<?xml version="1.0" encoding="UTF-8" ?>
<!DOCTYPE svg PUBLIC "-//W3C//DTD SVG 1.1//EN" "http://www.w3.org/Graphics/SVG/1.1/DTD/svg11.dtd">
<svg width="200pt" height="200pt" viewBox="0 0 200 200" version="1.1" xmlns="http://www.w3.org/2000/svg">
<g id="#ffffffff">
</g>
<g id="#58fd00ff">
<path fill="#58fd00" opacity="1.00" d=" M 135.35 0.00 L 164.60 0.00 C 164.55 4.83 164.65 9.66 164.56 14.48 C 154.84 14.48 145.13 14.52 135.42 14.51 C 135.27 9.68 135.41 4.84 135.35 0.00 M 137.31 2.09 C 137.33 2.77 137.36 4.14 137.38 4.82 C 145.81 4.84 154.24 4.86 162.68 4.82 C 162.68 4.14 162.69 2.79 162.69 2.11 C 154.31 1.74 145.75 1.95 137.31 2.09 Z" />
<path fill="#58fd00" opacity="1.00" d=" M 132.34 6.16 C 133.56 4.86 135.42 7.59 133.69 8.32 C 132.36 9.31 130.91 6.96 132.34 6.16 Z" />
<path fill="#58fd00" opacity="1.00" d=" M 165.69 6.86 C 167.87 5.56 171.13 6.67 173.73 6.32 C 173.68 10.44 173.88 14.58 173.62 18.69 C 172.89 21.96 169.40 23.18 167.04 25.05 C 161.89 28.79 156.31 32.00 151.45 36.10 C 153.81 36.21 156.18 36.07 158.55 36.18 C 172.14 89.80 185.57 143.46 199.25 197.05 C 199.44 197.66 199.81 198.88 200.00 199.49 L 200.00 200.00 L 180.06 200.00 C 169.48 159.54 159.58 118.86 149.31 78.30 C 149.16 78.24 148.87 78.10 148.72 78.03 C 138.45 118.70 128.02 159.32 117.80 200.00 L 97.51 200.00 C 111.44 145.39 125.34 90.78 139.27 36.17 C 142.55 36.05 145.82 36.21 149.10 36.11 C 149.89 35.19 150.38 33.99 151.45 33.34 C 157.55 29.14 163.68 24.99 169.79 20.81 C 170.81 20.18 171.68 19.16 171.74 17.91 C 171.83 14.68 171.79 11.45 171.76 8.23 C 169.82 8.17 167.88 8.27 165.95 8.18 L 165.69 6.86 Z" />
<path fill="#58fd00" opacity="1.00" d=" M 47.83 18.24 C 50.05 18.31 52.29 18.15 54.50 18.40 C 54.21 21.49 54.85 24.87 54.20 27.77 C 52.07 27.77 49.95 27.82 47.83 27.82 C 47.77 24.63 47.76 21.43 47.83 18.24 Z" />
<path fill="#58fd00" opacity="1.00" d=" M 55.70 19.93 C 61.16 19.89 66.62 19.90 72.08 19.93 C 74.05 21.69 77.75 22.88 77.87 25.80 C 73.67 26.50 69.30 25.87 65.03 26.12 C 64.99 28.26 64.96 30.40 65.05 32.54 C 67.70 32.58 70.36 32.49 73.01 32.57 C 73.06 75.37 73.02 118.18 73.03 160.99 C 73.07 170.35 71.29 180.09 65.85 187.90 C 61.66 194.12 54.95 198.42 47.66 200.00 L 26.26 200.00 C 16.77 197.32 7.22 193.28 0.00 186.38 L 0.00 185.80 C 3.08 180.19 5.41 174.14 8.21 168.37 C 14.02 172.90 21.04 175.54 28.07 177.51 C 34.70 179.16 42.50 178.47 47.80 173.79 C 51.89 170.07 53.00 164.25 53.23 158.97 C 53.37 116.82 53.09 74.66 53.37 32.52 C 55.89 32.53 58.43 32.56 60.96 32.54 C 61.10 30.41 61.06 28.27 60.99 26.14 C 59.23 26.06 57.46 26.14 55.71 26.08 C 55.65 24.03 55.66 21.98 55.70 19.93 Z" />
<path fill="#58fd00" opacity="1.00" d=" M 137.98 148.03 C 145.22 148.04 152.46 147.95 159.70 148.09 C 161.18 154.09 162.80 160.06 164.33 166.06 C 154.05 166.02 143.75 166.19 133.47 165.97 C 134.97 159.99 136.45 154.00 137.98 148.03 Z" />
</g>
</svg>
